<?xml version="1.0" encoding="UTF-8"?>
<svg version="1.1" xmlns="http://www.w3.org/2000/svg" width="2000" height="2000">
<path d="M0 0 C7.49116577 0.08943528 14.98241425 0.17078552 22.47367366 0.2519282 C35.9169547 0.39776414 49.36015645 0.54990652 62.80332155 0.70603851 C75.65940082 0.85534076 88.51551186 1.00119512 101.37168092 1.14256195 C102.15900342 1.15122026 102.94632591 1.15987856 103.75750666 1.16879924 C106.92864005 1.20366253 110.09977358 1.23851238 113.27090734 1.27334177 C127.26578654 1.42712748 141.26063656 1.58354791 155.25547934 1.74060831 C156.72997236 1.75715355 158.20446551 1.77368784 159.67895878 1.7902107 C179.03574168 2.00713125 198.392388 2.23318197 217.74889079 2.47384974 C222.33686862 2.5307544 226.92486244 2.58617798 231.51286732 2.64085607 C239.75749666 2.73912435 248.00206839 2.84093641 256.24657743 2.94886003 C260.21101737 3.00068237 264.17546138 3.05090247 268.13997216 3.09701899 C271.82406551 3.1399565 275.50806957 3.18751264 279.19205693 3.238724 C281.20253368 3.26546981 283.21307374 3.28731237 285.22361083 3.30905465 C287.00624111 3.33519865 287.00624111 3.33519865 288.82488412 3.3618708 C289.86466224 3.37503511 290.90444036 3.38819942 291.97572691 3.40176264 C294.30380983 3.55467132 294.30380983 3.55467132 295.30380983 4.55467132 C297.31455983 4.84369397 299.33378164 5.07392042 301.35459108 5.28123382 C302.65525514 5.42214447 303.9559192 5.56305511 305.29599733 5.70823578 C305.99821413 5.78417969 306.70043092 5.8601236 307.42392702 5.93836883 C352.08156559 10.85356856 395.32372237 21.94881632 436.30380983 40.55467132 C437.10866823 40.91528656 437.91352663 41.27590179 438.74277467 41.64744476 C463.66149284 52.85558108 487.02822969 67.41112534 508.30380983 84.55467132 C509.2190442 85.27783539 510.13427858 86.00099945 511.07724733 86.74607757 C526.85077174 99.37845601 541.90849754 113.57393812 554.30380983 129.55467132 C555.31005061 130.82051071 556.31658092 132.08611998 557.32334108 133.35154632 C569.16279445 148.37615214 579.24441265 164.20238081 587.30380983 181.55467132 C587.80606081 182.61138031 587.80606081 182.61138031 588.31845827 183.68943695 C595.45389836 198.7375106 600.44022798 213.98980747 604.05380983 230.24217132 C604.25256715 231.13122162 604.45132448 232.02027191 604.65610475 232.93626312 C607.79204634 247.76108086 608.71506438 262.32536056 608.67880983 277.42967132 C608.67749559 278.77545257 608.67749559 278.77545257 608.6761548 280.14842132 C608.48917025 338.45136985 584.49433071 392.57045069 544.79990358 434.87107757 C542.67321161 437.15752106 540.63308422 439.48454217 538.61630983 441.86717132 C535.80357417 445.10547456 532.77550876 447.89646309 529.50302858 450.66404632 C527.05572223 452.76794735 524.72017066 454.97181397 522.36630983 457.17967132 C505.98015692 472.07617397 487.2396714 484.17977215 468.30380983 495.55467132 C473.83183605 497.89172306 479.3684839 500.19606266 484.95615358 502.38670257 C521.78693 516.83703771 554.71722087 537.07316777 583.30380983 564.55467132 C584.2399109 565.44992523 584.2399109 565.44992523 585.19492311 566.36326507 C593.8898741 574.72387575 601.91986324 583.25344553 609.1041028 592.94920257 C610.24160765 594.4714313 611.41439473 595.96710751 612.58896608 597.46092132 C619.25922728 606.02520731 624.85960173 615.1761801 630.30380983 624.55467132 C630.70100221 625.23626312 631.09819459 625.91785492 631.50742311 626.62010101 C649.87306138 658.554207 661.30209326 696.94936086 661.50693483 733.91014007 C661.51399446 734.76606247 661.52105409 735.62198486 661.52832765 736.5038443 C661.75670271 772.33053719 661.75670271 772.33053719 658.30380983 789.55467132 C658.10513307 790.5730307 657.90645631 791.59139007 657.70175905 792.64060882 C645.99017254 851.1722232 613.31508572 908.39624981 565.89365358 945.51170257 C564.16038282 946.87897347 562.46414385 948.29447092 560.80771608 949.75389007 C511.09476349 993.40604729 441.86618907 1015.27767492 377.92880983 1027.49217132 C376.48199831 1027.77314667 376.48199831 1027.77314667 375.00595827 1028.05979828 C356.63322726 1031.35340133 338.03577316 1031.86131084 319.42099733 1031.93357757 C317.08106158 1031.94963624 314.74113131 1031.96650999 312.40120668 1031.98411468 C306.01046762 1032.02980973 299.61971374 1032.06393358 293.22889299 1032.09585861 C287.00964751 1032.12772457 280.7904648 1032.16962074 274.5712722 1032.21032707 C262.4814532 1032.28919192 250.39160364 1032.3608167 238.30171496 1032.42807213 C224.16416204 1032.50678752 210.02669699 1032.59414473 195.88925905 1032.69139007 C195.03184374 1032.69728299 194.17442843 1032.7031759 193.29103083 1032.70924739 C189.79717688 1032.73327453 186.30332312 1032.75732764 182.80946953 1032.7814068 C110.90161339 1033.27633144 38.99324957 1033.66345462 -32.91640031 1033.73332653 C-38.65537596 1033.73928266 -44.39432947 1033.75010396 -50.13329344 1033.7629538 C-57.02965612 1033.77820748 -63.9259796 1033.78621747 -70.82235979 1033.78442148 C-74.31816954 1033.78362139 -77.81390313 1033.78588284 -81.3096984 1033.7965422 C-85.07743375 1033.80621639 -88.84495604 1033.80361529 -92.61269408 1033.79759125 C-93.71961954 1033.80321359 -94.826545 1033.80883593 -95.96701365 1033.81462864 C-97.46558893 1033.80833266 -97.46558893 1033.80833266 -98.99443846 1033.80190948 C-99.86060097 1033.80245425 -100.72676348 1033.80299902 -101.61917334 1033.80356029 C-103.69619017 1033.55467132 -103.69619017 1033.55467132 -105.69619017 1031.55467132 C-105.82119017 1028.42967132 -105.82119017 1028.42967132 -105.69619017 1025.55467132 C-90.1596252 1018.67439784 -74.58033753 1011.90575414 -58.93813353 1005.26927093 C-53.07338237 1002.7808139 -47.21101708 1000.28674699 -41.34853392 997.79295257 C-40.13845671 997.27830444 -38.9283795 996.76365631 -37.68163329 996.23341278 C-24.67551627 990.69940297 -11.68547863 985.12803702 1.30380983 979.55467132 C20.8996658 971.14781877 40.50928096 962.77396978 60.1299817 954.42527679 C76.03142509 947.65865622 91.92258796 940.8686119 107.80380983 934.05467132 C124.81315107 926.75670386 141.83512529 919.48901397 158.86630983 912.24217132 C177.35742475 904.37406485 195.83593635 896.47717394 214.30380983 888.55467132 C231.51255749 881.17232948 248.72934176 873.8094383 265.95975465 866.47779755 C272.62016716 863.64333245 279.27941893 860.80614106 285.93872804 857.96908478 C291.90954271 855.42554539 297.88105358 852.88365743 303.85361452 850.34422211 C309.6090829 847.89696896 315.36283593 845.44572388 321.11488695 842.99044899 C324.1608253 841.69042335 327.20765116 840.39259784 330.25595827 839.09812836 C343.15139806 833.62091614 355.86779045 828.01417042 368.30380983 821.55467132 C369.60826565 820.89593689 370.91353373 820.23880863 372.21958131 819.58323578 C400.45882846 805.32168185 431.83074573 779.58756209 442.30380983 748.55467132 C448.76346085 727.07411946 449.26237312 708.67240545 438.53037233 688.60154632 C437.79052261 687.2513044 437.04836011 685.90232698 436.30380983 684.55467132 C435.78125612 683.59077484 435.78125612 683.59077484 435.24814577 682.6074057 C421.66549677 657.77563471 400.56839747 641.30845847 376.30380983 627.55467132 C375.53568971 627.11864593 374.76756959 626.68262054 373.97617311 626.23338226 C340.31301463 607.35195353 301.12031159 595.25184698 262.30380983 596.55467132 C260.33734499 596.58174164 260.33734499 596.58174164 258.33115358 596.60935882 C250.78712521 597.53016578 243.84294889 601.57695082 237.05380983 604.80467132 C235.48118897 605.54006264 233.9078538 606.2739282 232.33383913 607.00633148 C229.15104011 608.48782897 225.97059726 609.97420914 222.7916028 611.46385101 C216.59863836 614.3580051 210.36077939 617.14848719 204.11630983 619.92967132 C201.75158554 620.9866477 199.38700645 622.04394896 197.02255983 623.10154632 C196.41573869 623.37280334 195.80891756 623.64406036 195.1837079 623.92353729 C186.82191148 627.66222609 178.46921855 631.42117892 170.11630983 635.17967132 C169.27681795 635.55732635 168.43732606 635.93498138 167.57239503 636.3240805 C157.93465618 640.66022982 148.30103506 645.00530979 138.67490358 649.36717132 C137.79765626 649.76464569 136.92040895 650.16212006 136.01657838 650.5716391 C130.7069262 652.97747059 130.7069262 652.97747059 125.39737672 655.38352875 C112.5545411 661.20189861 99.68237473 666.9501877 86.78839845 672.65418915 C75.18394048 677.79120727 63.63926192 683.05005776 52.11630983 688.36717132 C41.31217817 693.35093279 30.49894883 698.30666568 19.61630983 703.11717132 C18.06617189 703.80613495 18.06617189 703.80613495 16.48471803 704.50901703 C15.55490114 704.91724701 14.62508424 705.32547699 13.66709108 705.74607757 C12.86569704 706.09871673 12.06430299 706.4513559 11.23862428 706.81468109 C9.30380983 707.55467132 9.30380983 707.55467132 7.30380983 707.55467132 C7.30657521 708.53073806 7.30934059 709.50680479 7.31218977 710.5124493 C7.37882102 734.27437386 7.4281026 758.03628628 7.45924634 781.79828457 C7.47470796 793.28946096 7.49578406 804.78057559 7.53012819 816.27171234 C7.56005206 826.2886688 7.57938996 836.30558052 7.58607531 846.32258043 C7.58998249 851.62533648 7.59915034 856.92796456 7.621 862.23067955 C7.64141228 867.22517604 7.64763402 872.21949225 7.64313287 877.21402649 C7.64395595 879.04373376 7.64989326 880.87344726 7.66142625 882.70311836 C7.78038843 902.55536965 7.78038843 902.55536965 2.82334108 909.68357757 C-1.3910268 913.22287509 -5.89601469 915.79091366 -10.82509642 918.19529632 C-11.5212506 918.53897751 -12.21740477 918.88265869 -12.93465453 919.23675445 C-15.18645302 920.3469421 -17.44122789 921.45092616 -19.69619017 922.55467132 C-21.19852615 923.29389144 -22.70072311 924.03339415 -24.20278197 924.77317718 C-81.21090329 952.81330098 -81.21090329 952.81330098 -101.69619017 960.55467132 C-102.50701048 960.90142914 -103.3178308 961.24818695 -104.15322142 961.60545257 C-108.38598529 963.38808226 -111.27021461 963.99568662 -115.69619017 962.55467132 C-117.70861053 960.97970075 -118.59003438 960.11521811 -119.07067633 957.57722837 C-119.07043213 956.81698947 -119.07018793 956.05675057 -119.06993633 955.27347413 C-119.07693443 954.39267617 -119.08393254 953.51187821 -119.09114271 952.60438941 C-119.08354751 951.6337256 -119.07595232 950.66306179 -119.06812697 949.66298393 C-119.0718881 948.62938238 -119.07564923 947.59578083 -119.07952433 946.53085802 C-119.08854245 943.02998072 -119.07597069 939.52950269 -119.06368285 936.02863983 C-119.06570581 933.50394773 -119.06904353 930.9792564 -119.07358842 928.45456759 C-119.08046159 922.9400179 -119.07792636 917.4255933 -119.06726485 911.91105179 C-119.05142974 903.69607499 -119.05274343 895.48116384 -119.05755713 887.2661764 C-119.06518276 873.37643892 -119.05855881 859.4867411 -119.0439456 845.59701065 C-119.02930314 831.65521726 -119.02065257 817.71344118 -119.01976042 803.77163986 C-119.01969933 802.89763726 -119.01963823 802.02363465 -119.01957529 801.12314712 C-119.01934559 797.5706338 -119.01915849 794.01812048 -119.01902715 790.46560716 C-119.01781026 757.90430103 -119.00208304 725.34301828 -118.97744017 692.78172211 C-118.95469267 662.71140773 -118.94014327 632.6411075 -118.93642455 602.57078461 C-118.9361868 600.73823069 -118.93594769 598.90567678 -118.9357072 597.07312287 C-118.93522984 593.41268862 -118.93475751 589.75225437 -118.93429079 586.09182011 C-118.93417539 585.18691056 -118.93405999 584.28200102 -118.9339411 583.34966996 C-118.93370981 581.52316921 -118.93348095 579.69666846 -118.93325452 577.8701677 C-118.92212991 488.62725994 -118.8465549 399.38450435 -118.70807534 307.49829771 C-118.6987474 301.3000921 -118.68970894 295.10188612 -118.6808055 288.90367988 C-118.62188796 247.96116793 -118.5514015 207.01872194 -118.4411717 166.07631222 C-118.43477208 163.6943373 -118.42837575 161.31236236 -118.42198665 158.93038741 C-118.41775902 157.35461275 -118.41352127 155.77883812 -118.40927331 154.20306352 C-118.37813249 142.58888313 -118.35478247 130.97470559 -118.33581572 119.36049942 C-118.31463248 106.40556552 -118.28318127 93.45070615 -118.23724579 80.49583519 C-118.21430544 73.95428631 -118.19628992 67.41279654 -118.19094782 60.87120584 C-118.18592821 54.91895338 -118.1672143 48.96691019 -118.13734426 43.014732 C-118.12897145 40.86741202 -118.12563669 38.72006534 -118.12781664 36.57273015 C-118.13002577 33.66391491 -118.11394615 30.75575329 -118.09323531 27.847024 C-118.09825343 27.01397689 -118.10327155 26.18092977 -118.10844173 25.3226388 C-118.02829817 18.59754057 -116.76356818 13.06904998 -112.38369017 7.74217132 C-102.47356377 -0.32421063 -89.0743975 0.17808952 -76.84023314 -0.10304352 C-75.71957854 -0.13190616 -75.71957854 -0.13190616 -74.57628446 -0.16135188 C-49.72411427 -0.77760781 -24.85433433 -0.2975755 0 0 Z M7.30380983 189.55467132 C6.16442874 238.40537455 5.79852493 287.26725558 5.34101898 336.12793044 C5.25297888 345.5038952 5.16132902 354.87982199 5.0687796 364.25574318 C4.97774636 373.48808853 4.88871172 382.72045174 4.8012054 391.95283119 C4.74967882 397.38911293 4.69758373 402.82538705 4.64363641 408.26164535 C4.33629521 439.36005617 4.25302684 470.45480298 4.30380983 501.55467132 C5.71649824 501.09442267 7.12826388 500.6313412 8.53964967 500.16711334 C9.71906633 499.78076517 9.71906633 499.78076517 10.92230958 499.38661198 C14.69802194 498.06762467 18.30104427 496.41494399 21.92880983 494.73826507 C23.14004015 494.18580109 23.14004015 494.18580109 24.37573976 493.62217621 C26.11311718 492.82952086 27.84963623 492.03498185 29.585365 491.23872284 C34.28606142 489.08320356 38.99402962 486.94370153 43.70224733 484.80467132 C44.66955781 484.36501541 45.6368683 483.9253595 46.63349123 483.47238068 C56.3611173 479.05956958 66.13976428 474.76657437 75.92880983 470.49217132 C89.52739132 464.54992719 103.08986318 458.53439573 116.61630983 452.42967132 C129.24743514 446.72946725 141.88765072 441.05165947 154.55380983 435.42967132 C155.28967317 435.10303497 156.02553651 434.77639862 156.78369875 434.4398642 C160.47829933 432.80015108 164.17321024 431.16113871 167.86826295 429.52244476 C174.5963892 426.53822513 181.32172336 423.54772256 188.04730958 420.55778412 C191.81108423 418.8846221 195.57503399 417.21185412 199.33896608 415.53904632 C200.84043176 414.8717305 202.34189661 414.2044128 203.84336061 413.5370932 C219.07627077 406.76691091 234.30918092 399.99672862 249.54209108 393.22654632 C250.43419786 392.83005386 251.32630464 392.4335614 252.24544496 392.02505402 C254.08582618 391.20710794 255.92620909 390.38916568 257.76659364 389.57122711 C262.48924363 387.47229155 267.2118638 385.37328893 271.93442506 383.27415375 C282.65362619 378.50966463 293.3733568 373.7463726 304.09450502 368.98626617 C308.8883679 366.8575247 313.68139016 364.72693138 318.472511 362.59202484 C320.30687504 361.77482503 322.14126586 360.95768533 323.97568483 360.14060882 C325.302893 359.5494352 325.302893 359.5494352 326.65691347 358.94631866 C331.4741983 356.80356161 336.29858892 354.67865646 341.13462038 352.57855133 C343.83105059 351.40673403 346.52358951 350.22614515 349.21567506 349.0443869 C350.97091443 348.27834929 352.73196475 347.52566779 354.49326295 346.77366547 C361.23253529 343.80836487 366.71850119 340.3430128 372.30380983 335.55467132 C373.1881067 334.84181976 374.07240358 334.1289682 374.98349733 333.39451507 C390.95195366 319.5570805 403.36824917 300.70889543 405.64365358 279.36717132 C406.15621411 263.62131186 399.59924242 247.62695644 388.92880983 236.11717132 C387.08981128 234.2198769 385.20783946 232.38897593 383.30380983 230.55467132 C382.51232545 229.75545257 381.72084108 228.95623382 380.90537233 228.13279632 C374.16250851 221.63634946 366.49355172 216.96614617 358.30380983 212.55467132 C357.60674928 212.17810394 356.90968874 211.80153656 356.19150514 211.41355804 C346.6030596 206.33770447 336.77795186 202.48504039 326.42880983 199.24217132 C324.94417238 198.77218719 324.94417238 198.77218719 323.42954225 198.29270843 C320.07244122 197.28866296 316.70337366 196.40439541 313.30380983 195.55467132 C312.61964998 195.37739502 311.93549013 195.20011871 311.23059816 195.0174704 C294.50446302 190.81412692 277.65380616 190.91988594 260.52998704 190.87615494 C256.14728215 190.86064587 251.76476128 190.82262605 247.38217897 190.78733734 C239.34242744 190.72539463 231.30267338 190.67755247 223.2627942 190.63572601 C208.94316202 190.55963007 194.62395519 190.43959707 180.30465478 190.31825355 C166.9502418 190.20533207 153.59577529 190.09867415 140.24130983 189.99217132 C139.52687573 189.98645756 138.81244164 189.9807438 138.07635803 189.97485689 C127.57799162 189.89099485 117.07960273 189.81108882 106.58115358 189.73826507 C105.90295368 189.73355863 105.22475377 189.72885218 104.52600235 189.72400311 C72.11873817 189.50146297 39.71167065 189.50824799 7.30380983 189.55467132 Z " fill="#9C72CD" transform="translate(1150.6961901709437,474.4453286752105)"/>
<path d="M0 0 C0.88640167 -0.0033284 1.77280334 -0.0066568 2.68606567 -0.01008606 C4.53972867 -0.01510502 6.39340053 -0.01749596 8.24707031 -0.01733398 C11.08413231 -0.01954201 13.92081794 -0.03780885 16.7578125 -0.05664062 C18.56770701 -0.05957133 20.37760336 -0.06155828 22.1875 -0.0625 C23.03230927 -0.06968552 23.87711853 -0.07687103 24.74752808 -0.08427429 C25.92993576 -0.07965935 25.92993576 -0.07965935 27.13623047 -0.07495117 C27.82554657 -0.07637619 28.51486267 -0.07780121 29.22506714 -0.07926941 C31.543761 0.21169415 33.13890529 1.08923556 35.1953125 2.16796875 C35.36888774 100.37101162 35.07682824 198.57169969 34.61254883 296.77368164 C34.60341813 298.70523493 34.60341813 298.70523493 34.59410298 300.6758095 C34.53934568 312.23631077 34.48416088 323.7968099 34.42743874 335.35730171 C34.28853755 363.67492331 34.16930071 391.99230352 34.11237413 420.31021613 C34.11045287 421.26536449 34.10853161 422.22051285 34.10655212 423.2046051 C34.1046606 424.14869116 34.10276908 425.09277722 34.10082024 426.06547195 C34.07689811 437.57104145 34.03643946 449.07655615 33.99244404 460.58206463 C33.95978257 469.31566673 33.94160748 478.04904231 33.94336611 486.78270656 C33.94326476 492.54300644 33.92579472 498.30307296 33.89341539 504.06328171 C33.87576973 507.30071104 33.86889978 510.53752129 33.87871361 513.77499962 C33.88814169 517.20585826 33.86760107 520.63520004 33.83886719 524.06591797 C33.84906167 525.06102481 33.85925615 526.05613165 33.86975956 527.08139324 C33.83185662 529.54761117 33.76738257 531.76915219 33.1953125 534.16796875 C30.81217957 536.21537781 30.81217957 536.21537781 28.1953125 537.16796875 C27.36588135 537.61132568 26.5364502 538.05468262 25.68188477 538.51147461 C24.80072998 538.96401611 23.9195752 539.41655762 23.01171875 539.8828125 C22.01382324 540.39755127 21.01592773 540.91229004 19.98779297 541.44262695 C18.38895264 542.26573364 18.38895264 542.26573364 16.7578125 543.10546875 C8.64060069 547.30219015 0.57118135 551.56611807 -7.4296875 555.98046875 C-16.30717451 560.87191074 -25.28698062 565.54252229 -34.3046875 570.16796875 C-43.44631793 574.85723687 -52.54873607 579.59598057 -61.5546875 584.54296875 C-62.42424072 585.01895508 -63.29379395 585.49494141 -64.18969727 585.98535156 C-67.61878497 587.86410754 -71.04603785 589.74564495 -74.46240234 591.64746094 C-77.04859188 593.08428552 -79.64425086 594.50252374 -82.2421875 595.91796875 C-83.3873584 596.56451416 -83.3873584 596.56451416 -84.55566406 597.22412109 C-89.25696625 599.76198288 -92.45902309 600.64689521 -97.8046875 600.16796875 C-98.95218653 597.87297068 -98.95650816 596.51418536 -99.00498867 593.95969772 C-99.02392158 593.07787181 -99.04285449 592.1960459 -99.06236112 591.287498 C-99.08592756 589.83478396 -99.08592756 589.83478396 -99.10997009 588.35272217 C-99.12992023 587.33802872 -99.14987037 586.32333528 -99.17042506 585.27789354 C-99.23478786 581.9063661 -99.2914713 578.53476299 -99.34741211 575.16308594 C-99.38963216 572.79419285 -99.43187613 570.42530018 -99.47414303 568.05640793 C-99.86803026 545.20515312 -100.01960492 522.35418222 -100.10801053 499.50002003 C-100.1305528 493.89353478 -100.15759313 488.28707084 -100.18406677 482.68060303 C-100.23310573 472.16026278 -100.27835657 461.63991015 -100.32208914 451.11954665 C-100.37224324 439.10162659 -100.42685986 427.08372793 -100.48176873 415.0658288 C-100.59421751 390.43322892 -100.70133066 365.80060835 -100.8046875 341.16796875 C-103.06133056 344.21416124 -105.31486796 347.26263809 -107.56787109 350.31152344 C-108.20385727 351.16994843 -108.83984344 352.02837341 -109.49510193 352.91281128 C-113.88225096 358.85399859 -118.01480604 364.82535224 -121.8046875 371.16796875 C-122.14624878 371.73604248 -122.48781006 372.30411621 -122.83972168 372.8894043 C-125.64227393 377.55231076 -128.41354202 382.23340314 -131.1796875 386.91796875 C-132.79096131 389.64234475 -134.40321387 392.36614075 -136.015625 395.08984375 C-136.4147963 395.76448166 -136.81396759 396.43911957 -137.22523499 397.13420105 C-140.27729971 402.28854927 -143.35505715 407.42708987 -146.4410553 412.56117249 C-150.29066619 418.96909605 -154.1040233 425.39836302 -157.91577148 431.82885742 C-163.52356321 441.28837361 -169.13486343 450.74545536 -174.8046875 460.16796875 C-179.94428402 468.70952359 -185.03222328 477.28133231 -190.1171875 485.85546875 C-196.41592847 496.47609985 -202.74094065 507.08008212 -209.10522461 517.66162109 C-212.54058663 523.3788325 -215.95942546 529.10543335 -219.359375 534.84375 C-219.75209595 535.50654968 -220.14481689 536.16934937 -220.54943848 536.85223389 C-222.1646113 539.57856619 -223.77964208 542.30498255 -225.39440918 545.03155518 C-231.04923158 554.5759515 -236.77289551 564.07503917 -242.5546875 573.54296875 C-248.57573584 583.40307188 -254.40958612 593.35851347 -260.14599609 603.38696289 C-264.70322659 611.32700987 -269.40602975 619.16968375 -274.1796875 626.98046875 C-280.02784247 636.54973765 -285.77732616 646.16920125 -291.4296875 655.85546875 C-297.21929345 665.77467768 -303.06958432 675.65408018 -308.99389648 685.49365234 C-314.19432936 694.13569924 -319.3479317 702.80492227 -324.4921875 711.48046875 C-330.02683501 720.81330516 -335.57434886 730.1375957 -341.16870117 739.43481445 C-345.91202143 747.32727447 -350.60686709 755.24838199 -355.3046875 763.16796875 C-367.01723879 782.9090851 -378.84763388 802.57376046 -390.8046875 822.16796875 C-387.07681744 821.44290612 -383.978234 819.8783819 -380.59350586 818.18383789 C-379.97970566 817.87788696 -379.36590546 817.57193604 -378.73350525 817.25671387 C-376.7018717 816.24275008 -374.67318048 815.2230448 -372.64453125 814.203125 C-371.21617523 813.48834978 -369.7876702 812.77387227 -368.35902405 812.05967712 C-365.35423282 810.55649863 -362.35080401 809.05064289 -359.34838867 807.54272461 C-355.55813439 805.6392206 -351.76534741 803.74083493 -347.97162437 801.84425545 C-329.52728053 792.64751692 -329.52728053 792.64751692 -311.24609375 783.1328125 C-302.96296431 778.71862965 -294.57754086 774.51442513 -286.1796875 770.32421875 C-285.47881578 769.97449446 -284.77794407 769.62477016 -284.05583382 769.26444817 C-278.23794725 766.36254082 -272.41745899 763.4658649 -266.59692383 760.5692749 C-261.54000609 758.05243759 -256.48404122 755.53370156 -251.4296875 753.01171875 C-250.72810516 752.66168793 -250.02652283 752.3116571 -249.30368042 751.95101929 C-240.8494928 747.72987628 -232.43940627 743.44093646 -224.10083008 738.99499512 C-216.66890315 735.0532289 -209.14444449 731.29818186 -201.6171875 727.54296875 C-200.93837524 727.20428268 -200.25956299 726.86559662 -199.56018066 726.51664734 C-193.93180578 723.70948166 -188.30083121 720.90754463 -182.6697998 718.10571289 C-177.77608688 715.67048611 -172.88333115 713.23335221 -167.9921875 710.79296875 C-167.31208618 710.45367844 -166.63198486 710.11438812 -165.93127441 709.76481628 C-158.36748594 705.98841076 -150.82767189 702.17698129 -143.3671875 698.19921875 C-135.04391743 693.76219183 -126.618992 689.53472484 -118.1796875 685.32421875 C-117.12864334 684.79977676 -117.12864334 684.79977676 -116.05636597 684.26473999 C-110.23830167 681.362736 -104.41764 678.46595498 -98.59692383 675.5692749 C-93.54000612 673.05243761 -88.48401661 670.53375087 -83.4296875 668.01171875 C-82.72795977 667.66158407 -82.02623203 667.31144939 -81.30323982 666.95070457 C-72.8610437 662.73509954 -64.46076461 658.4549786 -56.1325531 654.01765442 C-44.42619206 647.80787248 -32.53890444 641.9415049 -20.68676758 636.01635742 C-17.06893512 634.20749242 -13.45391036 632.39308906 -9.83952427 630.57734966 C-7.00875636 629.15636786 -4.17614651 627.73908835 -1.34303093 626.32279396 C-0.00977919 625.65558623 1.32283983 624.98711234 2.65475273 624.31723595 C8.97466012 621.14038265 15.32205431 618.02718906 21.78930664 615.15942383 C22.71417374 614.7481575 23.63904083 614.33689117 24.5919342 613.91316223 C27.54150119 613.06887537 29.27826365 613.32546521 32.1953125 614.16796875 C33.34190937 617.60775935 33.42675668 620.74258335 33.51350403 624.32575989 C33.53448115 625.08119862 33.55545828 625.83663736 33.57707107 626.61496818 C33.64557057 629.22601822 33.7043495 631.8371527 33.76098633 634.44848633 C33.79274694 635.85707804 33.79274694 635.85707804 33.82514918 637.29412615 C34.50426579 668.64787701 34.26212688 700.01679865 34.16883124 731.37550892 C34.14944641 737.89262176 34.1320349 744.40973726 34.11588478 750.9268589 C34.06469307 771.51195364 34.00699782 792.09701969 33.94418279 812.68208209 C33.89507463 828.85996773 33.85621475 845.03785987 33.82194819 861.21578314 C33.78644575 877.9267752 33.74365237 894.63773465 33.69319278 911.34868842 C33.66511873 920.69192934 33.63991843 930.0351562 33.6225338 939.37842369 C33.60771452 947.3080134 33.58603285 955.23754863 33.55565866 963.16709461 C33.5403913 967.20182132 33.52815067 971.23649242 33.52455711 975.27124786 C33.47732852 1020.87233004 33.47732852 1020.87233004 26.39672852 1027.97119141 C17.38738458 1032.86902927 3.79813795 1031.59262983 -6.2421875 1031.79296875 C-7.0216272 1031.81032074 -7.80106689 1031.82767273 -8.60412598 1031.84555054 C-15.00390961 1031.98574828 -21.40400345 1032.08004486 -27.8046875 1032.16796875 C-29.49008636 1032.19307526 -29.49008636 1032.19307526 -31.20953369 1032.21868896 C-38.5915226 1032.32684119 -45.97310881 1032.40578628 -53.35574341 1032.45306396 C-55.80768529 1032.47122994 -58.25958806 1032.49593437 -60.71139526 1032.52740479 C-64.1853978 1032.56947733 -67.658586 1032.5848334 -71.1328125 1032.59375 C-72.67918144 1032.6199366 -72.67918144 1032.6199366 -74.25679016 1032.64665222 C-81.48125674 1032.62543603 -88.86136508 1031.63018532 -94.49371338 1026.68501282 C-99.79936837 1020.58332096 -99.13581162 1014.08759434 -99.37475586 1006.41772461 C-99.39602472 1005.74854818 -99.41729358 1005.07937176 -99.43920696 1004.38991725 C-100.05303282 984.41026076 -99.83456052 964.42255056 -99.70415235 944.4370091 C-99.66920405 938.88649065 -99.64102052 933.3359374 -99.61204529 927.78538513 C-99.55646545 917.32805234 -99.49501456 906.87076308 -99.43132395 896.41347688 C-99.35897203 884.48556149 -99.2933637 872.55761178 -99.22825348 860.629655 C-99.09443917 836.14238169 -98.95237828 811.65516203 -98.8046875 787.16796875 C-102.29111387 788.90475004 -105.77650035 790.6436086 -109.26171875 792.3828125 C-110.23822388 792.86923218 -111.214729 793.35565186 -112.2208252 793.85681152 C-118.01385443 796.74909236 -123.77442389 799.69207949 -129.4921875 802.73046875 C-130.31936279 803.1685083 -131.14653809 803.60654785 -131.9987793 804.05786133 C-132.70172119 804.43064209 -133.40466309 804.80342285 -134.12890625 805.1875 C-141.6563927 809.15765785 -149.23397599 813.03111204 -156.8046875 816.91796875 C-170.74248065 824.0753338 -184.66285587 831.26497107 -198.56738281 838.48681641 C-204.1036981 841.36185917 -209.64165607 844.23373342 -215.1796875 847.10546875 C-216.84572021 847.96942261 -216.84572021 847.96942261 -218.54541016 848.85083008 C-232.23746212 855.9497175 -245.93794011 863.03231197 -259.63793945 870.11584473 C-263.90194267 872.3205508 -268.16585417 874.52543414 -272.4296875 876.73046875 C-273.03218323 877.04202911 -273.63467896 877.35358948 -274.25543213 877.67459106 C-281.76016274 881.55559023 -289.26214339 885.44184416 -296.76123047 889.33374023 C-307.9324146 895.13132809 -319.11428218 900.90759882 -330.3046875 906.66796875 C-348.53932298 916.05498442 -366.75409526 925.47951763 -384.9296875 934.98046875 C-394.9972316 940.24211802 -405.0939269 945.44632987 -415.19451904 950.64413452 C-425.75485206 956.07858525 -436.30564078 961.53083928 -446.84716797 967.00170898 C-454.95471618 971.20934019 -463.06596032 975.40976991 -471.1796875 979.60546875 C-471.78171997 979.91679749 -472.38375244 980.22812622 -473.00402832 980.54888916 C-476.05179713 982.12495929 -479.09961551 983.70093352 -482.14746094 985.27685547 C-485.78596436 987.15822501 -489.4242626 989.03999108 -493.0625 990.921875 C-493.66067535 991.23127518 -494.25885071 991.54067535 -494.87515259 991.85945129 C-497.88445327 993.41600448 -500.8936913 994.97267862 -503.90283203 996.52954102 C-509.45082202 999.39979229 -514.99930901 1002.26906644 -520.54989624 1005.1342926 C-523.09438222 1006.44784676 -525.6385428 1007.76203045 -528.18267822 1009.07626343 C-529.42418016 1009.71737485 -530.66583712 1010.35818619 -531.90765381 1010.99868774 C-537.63100694 1013.95084076 -543.35057753 1016.90586705 -549.015625 1019.96875 C-549.77713867 1020.37947754 -550.53865234 1020.79020508 -551.32324219 1021.21337891 C-552.64276304 1021.92880757 -553.95907907 1022.65021488 -555.27050781 1023.38037109 C-565.60752219 1028.99033702 -574.75324447 1030.75417593 -586.48632812 1030.63793945 C-587.93181007 1030.63844948 -589.37729229 1030.64071303 -590.82276917 1030.64457703 C-594.7227558 1030.64996208 -598.62226084 1030.63066259 -602.52216148 1030.60647607 C-606.64012426 1030.58498763 -610.7580887 1030.58576591 -614.87609863 1030.58378601 C-621.80599078 1030.57734995 -628.73570577 1030.55617124 -635.66552734 1030.5246582 C-644.47476643 1030.48464328 -653.28388936 1030.46699937 -662.09320831 1030.45734882 C-669.75286232 1030.44893877 -677.41249324 1030.43173234 -685.07212639 1030.41231132 C-686.69408543 1030.40830072 -688.31604515 1030.40455583 -689.93800545 1030.40108895 C-705.94490487 1030.36664491 -721.94716591 1030.29087055 -737.94726562 1029.77807617 C-739.02433525 1029.74813474 -740.10140488 1029.7181933 -741.21111298 1029.68734455 C-756.33469642 1029.12337835 -756.33469642 1029.12337835 -761.8046875 1024.79296875 C-763.71515593 1022.28547894 -764.36714654 1021.18881411 -764.8046875 1018.16796875 C-763.62174381 1012.81550944 -760.73662697 1007.96646805 -757.8671875 1003.35546875 C-757.48095215 1002.72366699 -757.0947168 1002.09186523 -756.69677734 1001.44091797 C-755.40907808 999.34377876 -754.10876375 997.25496068 -752.8046875 995.16796875 C-752.33820801 994.42015137 -751.87172852 993.67233398 -751.39111328 992.90185547 C-745.74951465 983.87718764 -740.01473969 974.91374972 -734.2199707 965.98681641 C-730.16040363 959.73001311 -726.13591475 953.45106728 -722.1171875 947.16796875 C-721.44034912 946.10989014 -720.76351074 945.05181152 -720.06616211 943.96166992 C-716.60246384 938.54574242 -713.1406738 933.12859833 -709.6796875 927.7109375 C-703.06858879 917.36629819 -696.43442668 907.03844975 -689.73095703 896.75341797 C-683.38713307 887.00938208 -677.13450277 877.20701478 -670.875 867.40869141 C-653.74907344 840.60096155 -653.74907344 840.60096155 -646.02612305 828.69726562 C-641.92604695 822.37095553 -637.86525209 816.0196899 -633.8046875 809.66796875 C-629.32231237 802.65643223 -624.8340489 795.64925674 -620.3046875 788.66796875 C-611.69459904 775.3930626 -603.19787946 762.04490386 -594.6796875 748.7109375 C-588.02673456 738.30091043 -581.3496416 727.90853138 -574.60131836 717.56005859 C-569.97980324 710.46224657 -565.43291055 703.31809374 -560.89404297 696.16723633 C-557.39036553 690.65023714 -553.8640812 685.14917187 -550.3046875 679.66796875 C-546.0996992 673.19209968 -541.94435306 666.68577574 -537.8046875 660.16796875 C-531.85475122 650.80171626 -525.84764386 641.47439293 -519.8046875 632.16796875 C-511.44452464 619.28681843 -503.15672268 606.36014077 -494.88525391 593.421875 C-490.86330808 587.13174429 -486.83776968 580.8439122 -482.8125 574.5559082 C-479.43925564 569.28603905 -476.06766317 564.01512624 -472.69921875 558.7421875 C-466.08194524 548.38691215 -459.44113542 538.04874286 -452.73095703 527.75341797 C-446.38713307 518.00938208 -440.13450277 508.20701478 -433.875 498.40869141 C-423.80502571 482.64585665 -413.71406518 466.89784626 -403.53222656 451.20703125 C-395.59895249 438.97782583 -387.73697602 426.70357131 -379.88525391 414.421875 C-375.86473039 408.13396871 -371.84048976 401.84844096 -367.81689453 395.5625 C-364.41961808 390.25472381 -361.02334333 384.94631131 -357.62890625 379.63671875 C-349.63509947 367.13495683 -341.60968664 354.65487456 -333.53222656 342.20703125 C-324.89831123 328.89778172 -316.34935754 315.53464255 -307.8046875 302.16796875 C-292.15247212 277.68275676 -292.15247212 277.68275676 -284.88110352 266.47973633 C-281.19616736 260.79344539 -277.56112991 255.07603065 -273.9296875 249.35546875 C-269.46869772 242.32959158 -264.97565949 235.32666229 -260.4296875 228.35546875 C-253.51344662 217.74781523 -246.69227787 207.08012899 -239.875 196.40869141 C-229.79462177 180.62957104 -219.69709247 164.86267177 -209.5 149.15869141 C-203.28196653 139.58098823 -197.12292049 129.96770967 -191.0012207 120.328125 C-186.98442432 114.00776384 -182.93862377 107.70747212 -178.84545898 101.4362793 C-176.46895746 97.78430597 -174.14514606 94.10828027 -171.87890625 90.38671875 C-165.62217622 80.15574803 -158.99296413 70.93473455 -150.8046875 62.16796875 C-149.94617188 61.22824219 -149.08765625 60.28851562 -148.203125 59.3203125 C-137.11829571 47.68291619 -123.79670402 38.0076985 -109.8046875 30.16796875 C-109.07894531 29.75337402 -108.35320313 29.3387793 -107.60546875 28.91162109 C-75.31185719 10.61146886 -37.23783917 0.04976695 0 0 Z " fill="#9C72CD" transform="translate(906.8046875,474.83203125)"/>
</svg>
